<svg width="40" height="40" viewBox="0 0 40 40" fill="none" xmlns="http://www.w3.org/2000/svg">
<path d="M3.33334 20C3.33334 29.2048 10.7953 36.6667 20 36.6667C22.7614 36.6667 25 34.4281 25 31.6667V30.8333C25 30.0593 25 29.6723 25.0428 29.3474C25.3382 27.1037 27.1037 25.3382 29.3474 25.0428C29.6723 25 30.0593 25 30.8333 25H31.6667C34.4281 25 36.6667 22.7614 36.6667 20C36.6667 10.7953 29.2047 3.33334 20 3.33334C10.7953 3.33334 3.33334 10.7953 3.33334 20Z" stroke="white" stroke-width="3" stroke-linecap="round" stroke-linejoin="round"/>
<path d="M11.6667 21.6667C12.5871 21.6667 13.3333 20.9205 13.3333 20C13.3333 19.0795 12.5871 18.3333 11.6667 18.3333C10.7462 18.3333 10 19.0795 10 20C10 20.9205 10.7462 21.6667 11.6667 21.6667Z" stroke="white" stroke-width="3" stroke-linecap="round" stroke-linejoin="round"/>
<path d="M26.6667 15C27.5871 15 28.3333 14.2538 28.3333 13.3333C28.3333 12.4129 27.5871 11.6667 26.6667 11.6667C25.7462 11.6667 25 12.4129 25 13.3333C25 14.2538 25.7462 15 26.6667 15Z" stroke="white" stroke-width="3" stroke-linecap="round" stroke-linejoin="round"/>
<path d="M16.6667 13.3333C17.5871 13.3333 18.3333 12.5872 18.3333 11.6667C18.3333 10.7462 17.5871 10 16.6667 10C15.7462 10 15 10.7462 15 11.6667C15 12.5872 15.7462 13.3333 16.6667 13.3333Z" stroke="white" stroke-width="3" stroke-linecap="round" stroke-linejoin="round"/>
</svg>
