<svg width="34" height="35" viewBox="0 0 34 35" fill="none" xmlns="http://www.w3.org/2000/svg">
<path d="M4.25 11.55C4.25 9.16978 4.25 7.97967 4.71322 7.07054C5.12068 6.27085 5.77085 5.62068 6.57054 5.21322C7.47967 4.75 8.66978 4.75 11.05 4.75H22.95C25.3302 4.75 26.5203 4.75 27.4295 5.21322C28.2291 5.62068 28.8793 6.27085 29.2868 7.07054C29.75 7.97967 29.75 9.16978 29.75 11.55V19.2C29.75 21.5802 29.75 22.7703 29.2868 23.6795C28.8793 24.4791 28.2291 25.1293 27.4295 25.5368C26.5203 26 25.3302 26 22.95 26H19.3853C18.5012 26 18.0592 26 17.6364 26.0868C17.2613 26.1638 16.8983 26.2911 16.5573 26.4653C16.1729 26.6617 15.8277 26.9378 15.1374 27.4901L11.758 30.1936C11.1685 30.6652 10.8738 30.901 10.6258 30.9012C10.41 30.9015 10.206 30.8034 10.0714 30.6348C9.91667 30.4409 9.91667 30.0635 9.91667 29.3086V26C8.59921 26 7.94048 26 7.40002 25.8552C5.93338 25.4622 4.7878 24.3166 4.39482 22.85C4.25 22.3095 4.25 21.6508 4.25 20.3333V11.55Z" stroke="black" stroke-width="2.5" stroke-linecap="round" stroke-linejoin="round"/>
</svg>
