<svg width="35" height="34" viewBox="0 0 35 34" fill="none" xmlns="http://www.w3.org/2000/svg">
<g clip-path="url(#clip0_2062_31)">
<path fill-rule="evenodd" clip-rule="evenodd" d="M17.5 0.672363C17.0181 0.672363 16.5463 0.810228 16.1402 1.06968C15.7393 1.32583 15.419 1.68991 15.216 2.1199L11.3605 9.90369C11.3529 9.91899 11.3456 9.93444 11.3387 9.95005C11.337 9.95391 11.3343 9.95729 11.3308 9.95979C11.3274 9.96229 11.3234 9.96387 11.3192 9.96433C11.3044 9.96596 11.2896 9.96788 11.2749 9.97006L2.78565 11.2277C2.31644 11.2734 1.869 11.4494 1.49423 11.7365C1.10646 12.0335 0.813129 12.4366 0.649783 12.897C0.486437 13.3573 0.460079 13.8551 0.573904 14.3302C0.687288 14.8033 0.934927 15.2336 1.28699 15.5694L7.50116 21.5651L7.51532 21.5785C7.52418 21.5868 7.53086 21.5972 7.5347 21.6087C7.53853 21.6202 7.53943 21.6326 7.53729 21.6445L7.53593 21.6524L6.05514 30.3185C5.97378 30.7882 6.02529 31.2734 6.20454 31.715C6.38404 32.1574 6.68411 32.5404 7.07057 32.8207C7.45705 33.1007 7.9144 33.2668 8.3906 33.2998C8.86584 33.3329 9.34083 33.2321 9.7617 33.0091L9.76425 33.0077L17.413 28.9653C17.4404 28.9534 17.4701 28.9471 17.5 28.9471C17.53 28.9471 17.5597 28.9534 17.5871 28.9653L25.2357 33.0077C25.6568 33.2314 26.1338 33.3331 26.6093 33.2998C27.0856 33.2668 27.5429 33.1007 27.9295 32.8207C28.3159 32.5404 28.6161 32.1574 28.7955 31.715C28.9748 31.2734 29.0265 30.7906 28.9454 30.3212L28.9449 30.3185L27.4642 21.6524L27.4627 21.6445C27.4605 21.6326 27.4615 21.6202 27.4654 21.6087C27.469 21.5972 27.4758 21.5868 27.4846 21.5785L27.4989 21.5651L33.7131 15.5693C34.065 15.2336 34.3128 14.8033 34.4262 14.3302C34.5398 13.8551 34.5136 13.3573 34.3502 12.897C34.187 12.4366 33.8936 12.0335 33.5057 11.7365C33.131 11.4494 32.6837 11.2734 32.2145 11.2277L23.7251 9.97006C23.7104 9.96788 23.6956 9.96596 23.6808 9.96433C23.6766 9.96387 23.6726 9.96229 23.6692 9.95979C23.6657 9.95729 23.663 9.95391 23.6613 9.95005C23.6544 9.93444 23.6471 9.91899 23.6396 9.90369L19.784 2.11987C19.581 1.68989 19.2607 1.32582 18.8599 1.06968C18.4537 0.810228 17.9819 0.672363 17.5 0.672363Z" fill="white"/>
</g>
<defs>
<clipPath id="clip0_2062_31">
<rect width="34" height="34" fill="white" transform="translate(0.5)"/>
</clipPath>
</defs>
</svg>
