<svg width="28" height="27" viewBox="0 0 28 27" fill="none" xmlns="http://www.w3.org/2000/svg">
<path d="M14.1357 1.37891C14.3463 1.37891 14.5538 1.42436 14.7441 1.51074L14.9287 1.61035C15.1037 1.72223 15.252 1.86979 15.3652 2.04199L15.4668 2.22168L15.4707 2.23047L18.4795 8.30566L18.4883 8.32227V8.32422C18.5153 8.38469 18.5543 8.44025 18.6035 8.4873L18.6562 8.53125C18.7285 8.58406 18.8142 8.61687 18.9053 8.62695V8.62793L18.9209 8.62988H18.9219L25.5479 9.6123L25.5596 9.61328L25.5723 9.61523C25.7772 9.63517 25.9752 9.69725 26.1533 9.79785L26.3242 9.91113C26.5219 10.0626 26.6779 10.2614 26.7773 10.4883L26.8164 10.5869V10.5879C26.9114 10.8557 26.9265 11.1452 26.8604 11.4219C26.8026 11.663 26.6854 11.8855 26.5195 12.0684L26.4453 12.1445L26.4434 12.1465L21.5986 16.8203L21.5869 16.8311L21.585 16.834C21.5379 16.8787 21.4958 16.9343 21.4648 17L21.4404 17.0596C21.4183 17.1251 21.4084 17.1954 21.4121 17.2666L21.4199 17.3379L22.5762 24.1016V24.1045C22.6117 24.3103 22.6041 24.5207 22.5537 24.7217L22.4893 24.9189V24.9199C22.4107 25.1136 22.2919 25.2875 22.1426 25.4316L21.9824 25.5654C21.8128 25.6882 21.6202 25.7733 21.417 25.8164L21.2109 25.8457C21.003 25.8603 20.794 25.8307 20.5986 25.7598L20.4082 25.6748H20.4072L14.4375 22.5195L14.4209 22.5107L14.4033 22.5029L14.2734 22.4619L14.1357 22.4473C14.0423 22.4473 13.9517 22.4671 13.8691 22.5029L13.8516 22.5107L13.835 22.5195L7.86426 25.6748L7.8623 25.6758C7.61627 25.8061 7.33826 25.865 7.06055 25.8457C6.85191 25.8312 6.64933 25.7731 6.46582 25.6758L6.28906 25.5654C6.11981 25.4426 5.97907 25.286 5.875 25.1064L5.7832 24.9199V24.9189C5.70493 24.726 5.66818 24.5182 5.6748 24.3105L5.69629 24.1025V24.1016L6.85156 17.3379L6.85352 17.332L6.85254 17.3311C6.86401 17.2638 6.8638 17.1953 6.85059 17.1289L6.83301 17.0615C6.8037 16.9735 6.7526 16.8955 6.68652 16.833H6.6875L6.67969 16.8262L1.8291 12.1465L1.82715 12.1445L1.75293 12.0684C1.61075 11.9117 1.50444 11.7261 1.44043 11.5244L1.41113 11.4219C1.35319 11.1798 1.358 10.9274 1.42383 10.6885L1.45605 10.5869C1.53927 10.3526 1.68023 10.1439 1.86523 9.97949L1.94727 9.91113C2.11102 9.7857 2.29916 9.69731 2.49805 9.64941L2.7002 9.61523L2.71289 9.61328L2.72461 9.6123L9.35059 8.62988L9.36621 8.62793C9.43523 8.62039 9.50084 8.59961 9.55957 8.56738L9.61621 8.53125C9.67108 8.49113 9.71692 8.44085 9.75195 8.38379L9.78418 8.32422V8.32227L9.79199 8.30566L12.8018 2.23047L12.8057 2.22168C12.8943 2.03398 13.0213 1.86764 13.1777 1.7334L13.3438 1.61035C13.5802 1.45928 13.8551 1.37897 14.1357 1.37891Z" fill="#FFDB63" stroke="#FFDB63"/>
</svg>
