<svg width="39" height="38" viewBox="0 0 39 38" fill="none" xmlns="http://www.w3.org/2000/svg">
<g clip-path="url(#clip0_2062_39)">
<path fill-rule="evenodd" clip-rule="evenodd" d="M38.5 19C38.5 24.0944 36.495 28.7204 33.2313 32.1323C29.7842 35.7355 24.9332 37.9843 19.5567 38C19.5378 38 19.5189 38 19.5 38C19.4811 38 19.4622 38 19.4433 38C14.0668 37.9843 9.21573 35.7355 5.76878 32.1323C2.50493 28.7204 0.5 24.0944 0.5 19C0.5 8.5066 9.0066 0 19.5 0C29.9934 0 38.5 8.5066 38.5 19ZM31.0162 28.5C28.2783 25.1844 24.1358 23.0714 19.5 23.0714C14.8642 23.0714 10.7218 25.1844 7.98369 28.5C10.7218 31.8155 14.8642 33.9286 19.5 33.9286C24.1358 33.9286 28.2783 31.8155 31.0162 28.5ZM19.5003 20.3571C23.248 20.3571 26.286 17.319 26.286 13.5713C26.286 9.82371 23.248 6.78563 19.5003 6.78563C15.7527 6.78563 12.7146 9.82371 12.7146 13.5713C12.7146 17.319 15.7527 20.3571 19.5003 20.3571Z" fill="white"/>
</g>
<defs>
<clipPath id="clip0_2062_39">
<rect width="38" height="38" fill="white" transform="translate(0.5)"/>
</clipPath>
</defs>
</svg>
